<svg width="201" height="234" viewBox="0 0 201 234" fill="none" xmlns="http://www.w3.org/2000/svg">
<path d="M143.564 1.06171e-05C152.34 -0.227163 161.06 1.4571 169.118 4.93568C175.989 8.008 181.998 12.72 186.616 18.6568C191.329 24.8892 194.818 31.9566 196.897 39.4854C199.249 47.9869 200.397 56.7755 200.308 65.595C200.18 77.9828 198.401 90.2985 195.019 102.218C191.389 115.358 186.42 128.093 180.19 140.222C173.75 152.819 166.137 164.783 157.453 175.957C148.965 187.037 139.23 197.106 128.438 205.965C118.218 214.4 106.83 221.315 94.629 226.498C82.9352 231.528 70.3393 234.13 57.6068 234.148C48.8664 234.332 40.1875 232.649 32.151 229.212C25.1988 226.184 19.1156 221.467 14.4554 215.491C9.7937 209.296 6.33965 202.28 4.2731 194.811C1.9653 186.301 0.834421 177.517 0.911933 168.701C0.960759 156.272 2.67297 143.906 6.0031 131.93C9.63304 118.79 14.6019 106.055 20.8317 93.9258C27.2899 81.3235 34.9014 69.3446 43.569 58.1422C52.0872 47.072 61.8379 37.0045 72.6332 28.1333C82.8575 19.7426 94.2245 12.846 106.393 7.6503C118.133 2.60089 130.781 -0.00235227 143.564 1.06171e-05ZM168.278 57.3031C168.3 51.036 167.671 44.7836 166.4 38.6463C165.307 33.1613 163.176 27.9348 160.122 23.247C157.097 18.7453 152.937 15.1192 148.062 12.734C142.068 9.93772 135.495 8.6014 128.883 8.83486C118.783 8.87351 108.961 12.1428 100.857 18.1633C91.6427 24.8709 83.6082 33.0604 77.0817 42.3974C69.6537 52.8838 63.2795 64.0761 58.0517 75.8119C52.6253 87.8045 47.9856 100.137 44.1622 112.731C40.6251 124.197 37.786 135.866 35.6604 147.675C33.9385 156.561 32.9631 165.576 32.7441 174.624C32.7221 180.891 33.3515 187.143 34.6224 193.281C35.7104 198.759 37.7873 203.994 40.7516 208.729C43.6601 213.204 47.7015 216.83 52.4662 219.242C58.2871 222.031 64.6982 223.369 71.1503 223.142C81.4892 223.167 91.5668 219.9 99.9179 213.813C109.202 207.138 117.291 198.945 123.841 189.579C131.295 179.109 137.671 167.914 142.872 156.165C148.297 144.132 153.001 131.787 156.959 119.196C160.593 107.746 163.482 96.074 165.609 84.2519C167.281 75.3615 168.207 66.3473 168.377 57.3031H168.278Z" fill="#EAE9E7"/>
</svg>
